<svg width="39" height="28" viewBox="0 0 39 28" fill="none" xmlns="http://www.w3.org/2000/svg">
<path fill-rule="evenodd" clip-rule="evenodd" d="M1 1H38.0133V27.438H1V1Z" fill="url(#paint0_linear_5_120)"/>
<path fill-rule="evenodd" clip-rule="evenodd" d="M1 1H38.0133V2.76254H1V1ZM1 4.52507H38.0133V6.28761H1V4.52507ZM1 8.05014H38.0133V9.81268H1V8.05014ZM1 11.5752H38.0133V13.3378H1V11.5752ZM1 15.1003H38.0133V16.8628H1V15.1003ZM1 18.6254H38.0133V20.3879H1V18.6254ZM1 22.1504H38.0133V23.913H1V22.1504ZM1 25.6755H38.0133V27.438H1V25.6755Z" fill="url(#paint1_linear_5_120)"/>
<path fill-rule="evenodd" clip-rule="evenodd" d="M1 1H16.8628V13.3378H1V1Z" fill="url(#paint2_linear_5_120)"/>
<path fill-rule="evenodd" clip-rule="evenodd" d="M3.64384 4.52511C3.15713 4.52511 2.76257 4.13055 2.76257 3.64384C2.76257 3.15713 3.15713 2.76257 3.64384 2.76257C4.13055 2.76257 4.52511 3.15713 4.52511 3.64384C4.52511 4.13055 4.13055 4.52511 3.64384 4.52511ZM7.16891 4.52511C6.6822 4.52511 6.28765 4.13055 6.28765 3.64384C6.28765 3.15713 6.6822 2.76257 7.16891 2.76257C7.65562 2.76257 8.05018 3.15713 8.05018 3.64384C8.05018 4.13055 7.65562 4.52511 7.16891 4.52511ZM10.694 4.52511C10.2073 4.52511 9.81272 4.13055 9.81272 3.64384C9.81272 3.15713 10.2073 2.76257 10.694 2.76257C11.1807 2.76257 11.5753 3.15713 11.5753 3.64384C11.5753 4.13055 11.1807 4.52511 10.694 4.52511ZM14.2191 4.52511C13.7323 4.52511 13.3378 4.13055 13.3378 3.64384C13.3378 3.15713 13.7323 2.76257 14.2191 2.76257C14.7058 2.76257 15.1003 3.15713 15.1003 3.64384C15.1003 4.13055 14.7058 4.52511 14.2191 4.52511ZM5.40638 6.28765C4.91967 6.28765 4.52511 5.89309 4.52511 5.40638C4.52511 4.91967 4.91967 4.52511 5.40638 4.52511C5.89309 4.52511 6.28765 4.91967 6.28765 5.40638C6.28765 5.89309 5.89309 6.28765 5.40638 6.28765ZM8.93145 6.28765C8.44474 6.28765 8.05018 5.89309 8.05018 5.40638C8.05018 4.91967 8.44474 4.52511 8.93145 4.52511C9.41816 4.52511 9.81272 4.91967 9.81272 5.40638C9.81272 5.89309 9.41816 6.28765 8.93145 6.28765ZM12.4565 6.28765C11.9698 6.28765 11.5753 5.89309 11.5753 5.40638C11.5753 4.91967 11.9698 4.52511 12.4565 4.52511C12.9432 4.52511 13.3378 4.91967 13.3378 5.40638C13.3378 5.89309 12.9432 6.28765 12.4565 6.28765ZM14.2191 8.05018C13.7323 8.05018 13.3378 7.65562 13.3378 7.16891C13.3378 6.6822 13.7323 6.28765 14.2191 6.28765C14.7058 6.28765 15.1003 6.6822 15.1003 7.16891C15.1003 7.65562 14.7058 8.05018 14.2191 8.05018ZM10.694 8.05018C10.2073 8.05018 9.81272 7.65562 9.81272 7.16891C9.81272 6.6822 10.2073 6.28765 10.694 6.28765C11.1807 6.28765 11.5753 6.6822 11.5753 7.16891C11.5753 7.65562 11.1807 8.05018 10.694 8.05018ZM7.16891 8.05018C6.6822 8.05018 6.28765 7.65562 6.28765 7.16891C6.28765 6.6822 6.6822 6.28765 7.16891 6.28765C7.65562 6.28765 8.05018 6.6822 8.05018 7.16891C8.05018 7.65562 7.65562 8.05018 7.16891 8.05018ZM3.64384 8.05018C3.15713 8.05018 2.76257 7.65562 2.76257 7.16891C2.76257 6.6822 3.15713 6.28765 3.64384 6.28765C4.13055 6.28765 4.52511 6.6822 4.52511 7.16891C4.52511 7.65562 4.13055 8.05018 3.64384 8.05018ZM5.40638 9.81272C4.91967 9.81272 4.52511 9.41816 4.52511 8.93145C4.52511 8.44474 4.91967 8.05018 5.40638 8.05018C5.89309 8.05018 6.28765 8.44474 6.28765 8.93145C6.28765 9.41816 5.89309 9.81272 5.40638 9.81272ZM8.93145 9.81272C8.44474 9.81272 8.05018 9.41816 8.05018 8.93145C8.05018 8.44474 8.44474 8.05018 8.93145 8.05018C9.41816 8.05018 9.81272 8.44474 9.81272 8.93145C9.81272 9.41816 9.41816 9.81272 8.93145 9.81272ZM12.4565 9.81272C11.9698 9.81272 11.5753 9.41816 11.5753 8.93145C11.5753 8.44474 11.9698 8.05018 12.4565 8.05018C12.9432 8.05018 13.3378 8.44474 13.3378 8.93145C13.3378 9.41816 12.9432 9.81272 12.4565 9.81272ZM14.2191 11.5753C13.7323 11.5753 13.3378 11.1807 13.3378 10.694C13.3378 10.2073 13.7323 9.81272 14.2191 9.81272C14.7058 9.81272 15.1003 10.2073 15.1003 10.694C15.1003 11.1807 14.7058 11.5753 14.2191 11.5753ZM10.694 11.5753C10.2073 11.5753 9.81272 11.1807 9.81272 10.694C9.81272 10.2073 10.2073 9.81272 10.694 9.81272C11.1807 9.81272 11.5753 10.2073 11.5753 10.694C11.5753 11.1807 11.1807 11.5753 10.694 11.5753ZM7.16891 11.5753C6.6822 11.5753 6.28765 11.1807 6.28765 10.694C6.28765 10.2073 6.6822 9.81272 7.16891 9.81272C7.65562 9.81272 8.05018 10.2073 8.05018 10.694C8.05018 11.1807 7.65562 11.5753 7.16891 11.5753ZM3.64384 11.5753C3.15713 11.5753 2.76257 11.1807 2.76257 10.694C2.76257 10.2073 3.15713 9.81272 3.64384 9.81272C4.13055 9.81272 4.52511 10.2073 4.52511 10.694C4.52511 11.1807 4.13055 11.5753 3.64384 11.5753Z" fill="url(#paint3_linear_5_120)"/>
<path fill-rule="evenodd" clip-rule="evenodd" d="M0.340698 0.529175H38V27.4287H0.340698V0.529175Z" fill="url(#paint4_linear_5_120)"/>
<path fill-rule="evenodd" clip-rule="evenodd" d="M0.340698 0.529175H38V27.4287H0.340698V0.529175Z" fill="url(#paint5_linear_5_120)"/>
<path fill-rule="evenodd" clip-rule="evenodd" d="M4.68319 14.4681C4.26571 14.198 4.27429 13.7544 4.68319 13.4899L18.4144 4.60494C18.8319 4.33481 19.5173 4.34036 19.9262 4.60494L33.6575 13.4899C34.0749 13.76 34.0663 14.2035 33.6575 14.4681L19.9262 23.353C19.5087 23.6231 18.8233 23.6176 18.4144 23.353L4.68319 14.4681Z" fill="#FDD216"/>
<path d="M19.1703 20.2555C22.6368 20.2555 25.4469 17.4454 25.4469 13.9789C25.4469 10.5125 22.6368 7.70239 19.1703 7.70239C15.7039 7.70239 12.8938 10.5125 12.8938 13.9789C12.8938 17.4454 15.7039 20.2555 19.1703 20.2555Z" fill="url(#paint6_linear_5_120)"/>
<mask id="mask0_5_120" style="mask-type:luminance" maskUnits="userSpaceOnUse" x="12" y="7" width="14" height="14">
<path d="M19.1703 20.2555C22.6368 20.2555 25.4469 17.4454 25.4469 13.9789C25.4469 10.5125 22.6368 7.70239 19.1703 7.70239C15.7039 7.70239 12.8938 10.5125 12.8938 13.9789C12.8938 17.4454 15.7039 20.2555 19.1703 20.2555Z" fill="white"/>
</mask>
<g mask="url(#mask0_5_120)">
<path d="M12.7137 13.0354C13.1894 12.6502 15.3371 12.9638 19.0522 13.9548C21.6958 14.66 24.7422 16.2169 25.4392 17.0777L26.0035 17.7745L27.3971 16.646L26.8329 15.9492C25.8464 14.731 22.491 13.0161 19.5144 12.2221C14.877 10.985 12.7751 10.6782 11.5851 11.6418L10.8883 12.2061L12.0169 13.5997L12.7137 13.0354Z" fill="white"/>
</g>
<defs>
<linearGradient id="paint0_linear_5_120" x1="389.639" y1="1" x2="389.639" y2="397.571" gradientUnits="userSpaceOnUse">
<stop stop-color="white"/>
<stop offset="1" stop-color="#F0F0F0"/>
</linearGradient>
<linearGradient id="paint1_linear_5_120" x1="389.639" y1="1" x2="389.639" y2="397.571" gradientUnits="userSpaceOnUse">
<stop stop-color="#D02F44"/>
<stop offset="1" stop-color="#B12537"/>
</linearGradient>
<linearGradient id="paint2_linear_5_120" x1="167.56" y1="1" x2="167.56" y2="186.066" gradientUnits="userSpaceOnUse">
<stop stop-color="#46467F"/>
<stop offset="1" stop-color="#3C3C6D"/>
</linearGradient>
<linearGradient id="paint3_linear_5_120" x1="132.309" y1="2.76257" x2="132.309" y2="134.953" gradientUnits="userSpaceOnUse">
<stop stop-color="white"/>
<stop offset="1" stop-color="#F0F0F0"/>
</linearGradient>
<linearGradient id="paint4_linear_5_120" x1="1883.3" y1="0.529175" x2="1883.3" y2="2690.48" gradientUnits="userSpaceOnUse">
<stop stop-color="white"/>
<stop offset="1" stop-color="#F0F0F0"/>
</linearGradient>
<linearGradient id="paint5_linear_5_120" x1="1883.3" y1="0.529175" x2="1883.3" y2="2690.48" gradientUnits="userSpaceOnUse">
<stop stop-color="#05AB41"/>
<stop offset="1" stop-color="#019C39"/>
</linearGradient>
<linearGradient id="paint6_linear_5_120" x1="640.548" y1="7.70239" x2="640.548" y2="1263.01" gradientUnits="userSpaceOnUse">
<stop stop-color="#053087"/>
<stop offset="1" stop-color="#012877"/>
</linearGradient>
</defs>
</svg>
