<svg width="34" height="24" viewBox="0 0 34 24" fill="none" xmlns="http://www.w3.org/2000/svg">
<path fill-rule="evenodd" clip-rule="evenodd" d="M0 0.276245H33.0133V23.8571H0V0.276245Z" fill="url(#paint0_linear_9_199)"/>
<path fill-rule="evenodd" clip-rule="evenodd" d="M0 0.276245H33.0133V1.8483H0V0.276245ZM0 3.42036H33.0133V4.99242H0V3.42036ZM0 6.56448H33.0133V8.13654H0V6.56448ZM0 9.7086H33.0133V11.2807H0V9.7086ZM0 12.8527H33.0133V14.4248H0V12.8527ZM0 15.9968H33.0133V17.5689H0V15.9968ZM0 19.141H33.0133V20.713H0V19.141ZM0 22.2851H33.0133V23.8571H0V22.2851Z" fill="url(#paint1_linear_9_199)"/>
<path fill-rule="evenodd" clip-rule="evenodd" d="M0 0.276245H14.1485V11.2807H0V0.276245Z" fill="url(#paint2_linear_9_199)"/>
<path fill-rule="evenodd" clip-rule="evenodd" d="M2.35814 3.42036C1.92403 3.42036 1.57211 3.06844 1.57211 2.63433C1.57211 2.20021 1.92403 1.8483 2.35814 1.8483C2.79226 1.8483 3.14417 2.20021 3.14417 2.63433C3.14417 3.06844 2.79226 3.42036 2.35814 3.42036ZM5.50226 3.42036C5.06815 3.42036 4.71623 3.06844 4.71623 2.63433C4.71623 2.20021 5.06815 1.8483 5.50226 1.8483C5.93638 1.8483 6.28829 2.20021 6.28829 2.63433C6.28829 3.06844 5.93638 3.42036 5.50226 3.42036ZM8.64638 3.42036C8.21227 3.42036 7.86035 3.06844 7.86035 2.63433C7.86035 2.20021 8.21227 1.8483 8.64638 1.8483C9.08049 1.8483 9.43241 2.20021 9.43241 2.63433C9.43241 3.06844 9.08049 3.42036 8.64638 3.42036ZM11.7905 3.42036C11.3564 3.42036 11.0045 3.06844 11.0045 2.63433C11.0045 2.20021 11.3564 1.8483 11.7905 1.8483C12.2246 1.8483 12.5765 2.20021 12.5765 2.63433C12.5765 3.06844 12.2246 3.42036 11.7905 3.42036ZM3.9302 4.99242C3.49609 4.99242 3.14417 4.6405 3.14417 4.20639C3.14417 3.77227 3.49609 3.42036 3.9302 3.42036C4.36432 3.42036 4.71623 3.77227 4.71623 4.20639C4.71623 4.6405 4.36432 4.99242 3.9302 4.99242ZM7.07432 4.99242C6.64021 4.99242 6.28829 4.6405 6.28829 4.20639C6.28829 3.77227 6.64021 3.42036 7.07432 3.42036C7.50843 3.42036 7.86035 3.77227 7.86035 4.20639C7.86035 4.6405 7.50843 4.99242 7.07432 4.99242ZM10.2184 4.99242C9.78433 4.99242 9.43241 4.6405 9.43241 4.20639C9.43241 3.77227 9.78433 3.42036 10.2184 3.42036C10.6526 3.42036 11.0045 3.77227 11.0045 4.20639C11.0045 4.6405 10.6526 4.99242 10.2184 4.99242ZM11.7905 6.56448C11.3564 6.56448 11.0045 6.21256 11.0045 5.77845C11.0045 5.34433 11.3564 4.99242 11.7905 4.99242C12.2246 4.99242 12.5765 5.34433 12.5765 5.77845C12.5765 6.21256 12.2246 6.56448 11.7905 6.56448ZM8.64638 6.56448C8.21227 6.56448 7.86035 6.21256 7.86035 5.77845C7.86035 5.34433 8.21227 4.99242 8.64638 4.99242C9.08049 4.99242 9.43241 5.34433 9.43241 5.77845C9.43241 6.21256 9.08049 6.56448 8.64638 6.56448ZM5.50226 6.56448C5.06815 6.56448 4.71623 6.21256 4.71623 5.77845C4.71623 5.34433 5.06815 4.99242 5.50226 4.99242C5.93638 4.99242 6.28829 5.34433 6.28829 5.77845C6.28829 6.21256 5.93638 6.56448 5.50226 6.56448ZM2.35814 6.56448C1.92403 6.56448 1.57211 6.21256 1.57211 5.77845C1.57211 5.34433 1.92403 4.99242 2.35814 4.99242C2.79226 4.99242 3.14417 5.34433 3.14417 5.77845C3.14417 6.21256 2.79226 6.56448 2.35814 6.56448ZM3.9302 8.13654C3.49609 8.13654 3.14417 7.78462 3.14417 7.35051C3.14417 6.91639 3.49609 6.56448 3.9302 6.56448C4.36432 6.56448 4.71623 6.91639 4.71623 7.35051C4.71623 7.78462 4.36432 8.13654 3.9302 8.13654ZM7.07432 8.13654C6.64021 8.13654 6.28829 7.78462 6.28829 7.35051C6.28829 6.91639 6.64021 6.56448 7.07432 6.56448C7.50843 6.56448 7.86035 6.91639 7.86035 7.35051C7.86035 7.78462 7.50843 8.13654 7.07432 8.13654ZM10.2184 8.13654C9.78433 8.13654 9.43241 7.78462 9.43241 7.35051C9.43241 6.91639 9.78433 6.56448 10.2184 6.56448C10.6526 6.56448 11.0045 6.91639 11.0045 7.35051C11.0045 7.78462 10.6526 8.13654 10.2184 8.13654ZM11.7905 9.7086C11.3564 9.7086 11.0045 9.35668 11.0045 8.92257C11.0045 8.48845 11.3564 8.13654 11.7905 8.13654C12.2246 8.13654 12.5765 8.48845 12.5765 8.92257C12.5765 9.35668 12.2246 9.7086 11.7905 9.7086ZM8.64638 9.7086C8.21227 9.7086 7.86035 9.35668 7.86035 8.92257C7.86035 8.48845 8.21227 8.13654 8.64638 8.13654C9.08049 8.13654 9.43241 8.48845 9.43241 8.92257C9.43241 9.35668 9.08049 9.7086 8.64638 9.7086ZM5.50226 9.7086C5.06815 9.7086 4.71623 9.35668 4.71623 8.92257C4.71623 8.48845 5.06815 8.13654 5.50226 8.13654C5.93638 8.13654 6.28829 8.48845 6.28829 8.92257C6.28829 9.35668 5.93638 9.7086 5.50226 9.7086ZM2.35814 9.7086C1.92403 9.7086 1.57211 9.35668 1.57211 8.92257C1.57211 8.48845 1.92403 8.13654 2.35814 8.13654C2.79226 8.13654 3.14417 8.48845 3.14417 8.92257C3.14417 9.35668 2.79226 9.7086 2.35814 9.7086Z" fill="url(#paint3_linear_9_199)"/>
<defs>
<linearGradient id="paint0_linear_9_199" x1="346.639" y1="0.276245" x2="346.639" y2="353.99" gradientUnits="userSpaceOnUse">
<stop stop-color="white"/>
<stop offset="1" stop-color="#F0F0F0"/>
</linearGradient>
<linearGradient id="paint1_linear_9_199" x1="346.639" y1="0.276245" x2="346.639" y2="353.99" gradientUnits="userSpaceOnUse">
<stop stop-color="#D02F44"/>
<stop offset="1" stop-color="#B12537"/>
</linearGradient>
<linearGradient id="paint2_linear_9_199" x1="148.56" y1="0.276245" x2="148.56" y2="165.343" gradientUnits="userSpaceOnUse">
<stop stop-color="#46467F"/>
<stop offset="1" stop-color="#3C3C6D"/>
</linearGradient>
<linearGradient id="paint3_linear_9_199" x1="117.119" y1="1.8483" x2="117.119" y2="119.753" gradientUnits="userSpaceOnUse">
<stop stop-color="white"/>
<stop offset="1" stop-color="#F0F0F0"/>
</linearGradient>
</defs>
</svg>
