<svg xmlns="http://www.w3.org/2000/svg" width="148" height="24" fill="none" viewBox="0 0 148 24">
  <path fill="#3D405B" d="M.65625 18v-2.0508l1.81641-.3515V3.35156L.65625 3V.9375h6.87891L12.1875 12.832h.0703l4.5-11.8945h6.8906V3l-1.8281.35156V15.5977l1.8281.3515V18H16.582v-2.0508l1.9102-.3515v-3.2696l.0586-7.69919-.0703-.01172-5.0977 13.14841H10.793L5.57812 4.72266l-.07031.01172.19922 7.24222v3.6211l2.01563.3515V18H.65625Zm28.53515.2461c-1.2578 0-2.2578-.3359-3-1.0078-.7422-.6797-1.1133-1.6016-1.1133-2.7656 0-.7969.2149-1.4961.6446-2.0977.4375-.6016 1.0781-1.0742 1.9218-1.418.8516-.3437 1.8985-.5156 3.1407-.5156h1.6757v-.93749c0-.60938-.1797-1.10157-.539-1.47657-.3516-.38281-.8828-.57422-1.5938-.57422-.3672 0-.6953.04688-.9843.14063-.2891.08594-.5547.21094-.7969.375l-.2696 1.67578h-2.4609l-.0469-3.29297c.6641-.375 1.3828-.67968 2.1563-.91406.7734-.23438 1.6367-.35156 2.5898-.35156 1.6563 0 2.9649.38672 3.9258 1.16015.9609.76563 1.4414 1.86329 1.4414 3.29297v5.74214c.0078.1641.0234.3243.0469.4805l1.3242.1875V18h-4.2422c-.0859-.2188-.1719-.4531-.2578-.7031-.0859-.25-.1484-.5-.1875-.75-.4062.5156-.8867.9297-1.4414 1.2422-.5469.3047-1.1914.457-1.9336.457Zm.9141-2.5313c.4765 0 .9297-.1054 1.3593-.3164.4297-.2187.7618-.5039.9961-.8554v-2.0039h-1.6875c-.75 0-1.3203.1718-1.7109.5156-.3828.3437-.5742.7578-.5742 1.2422 0 .4531.1406.8047.4219 1.0547.289.2422.6875.3632 1.1953.3632Zm12.9257 2.5313c-1.1796 0-2.0898-.3242-2.7304-.9727-.6328-.6484-.9492-1.6757-.9492-3.082V7.72266h-1.7461V5.32031h1.7461V2.21484h3.4101v3.10547h2.3321v2.40235h-2.3321v6.45704c0 .4922.1016.8437.3047 1.0547.2109.2109.4961.3164.8555.3164.1953 0 .3984-.0117.6093-.0352.2188-.0312.4063-.0625.5626-.0937l.2929 2.4726c-.3515.1016-.7344.1836-1.1484.2461-.4063.0703-.8086.1055-1.2071.1055Zm9.4336 0c-1.2109 0-2.2695-.2656-3.1757-.7969-.9063-.539-1.6094-1.2773-2.1094-2.2148-.4922-.9375-.7383-2.0078-.7383-3.211v-.4687c0-1.2578.2344-2.37111.7031-3.33986.4688-.97656 1.1289-1.74218 1.9805-2.29687.8594-.5625 1.8711-.83985 3.0352-.83203 1.1484 0 2.1132.22656 2.8945.67968.7812.45313 1.375 1.10547 1.7812 1.95704.4063.85156.6094 1.88281.6094 3.09374v1.8633h-7.4531l-.0234.0703c.0468.5547.1835 1.0508.4101 1.4883.2344.4297.5625.7695.9844 1.0195.4219.2422.9336.3633 1.5351.3633.625 0 1.2071-.0781 1.7461-.2344.5469-.164 1.0782-.4023 1.5938-.7148l.9258 2.1093c-.5235.4219-1.1836.7735-1.9805 1.0547-.7891.2735-1.6953.4102-2.7188.4102Zm-2.4492-7.8281h4.2305v-.3047c0-.51564-.0703-.95705-.2109-1.32424-.1329-.375-.3516-.66406-.6563-.86718-.2969-.20313-.6836-.30469-1.1601-.30469-.4532 0-.836.12109-1.1485.36328-.3125.23437-.5586.55859-.7383.97265-.1718.41407-.289.88282-.3515 1.40628l.0351.0586Zm14.3906 7.8281c-1.3359 0-2.3867-.4219-3.1523-1.2656-.7578-.8516-1.1367-2.1719-1.1367-3.961V7.73438l-1.3945-.35157v-2.0625h4.8164V13.043c0 .9062.1562 1.5586.4687 1.957.3203.3906.8008.5859 1.4414.5859.5078 0 .957-.0976 1.3477-.2929.3906-.2032.7109-.4883.9609-.8555V7.73438l-1.5117-.35157v-2.0625h4.9336V15.5977l1.5234.3515V18h-4.5234l-.2344-1.6055c-.3984.5938-.8984 1.0508-1.5 1.3711-.6015.3203-1.2812.4805-2.0391.4805Zm15.0118 0c-.9453 0-1.8282-.0899-2.6485-.2695-.8125-.1797-1.5937-.4375-2.3437-.7735l-.0352-3.5859h2.3789l.4571 1.8281c.2656.1328.5546.2383.8672.3164.3203.0781.6835.1172 1.0898.1172.7656 0 1.3047-.125 1.6172-.375s.4687-.5625.4687-.9375c0-.3516-.1679-.6602-.5039-.9258-.3281-.2734-.9883-.5117-1.9804-.7148-1.5-.3125-2.6055-.7969-3.3164-1.4531-.711-.6563-1.0665-1.49614-1.0665-2.51958 0-.70312.1758-1.34374.5274-1.92187.3594-.57813.9023-1.04297 1.6289-1.39453.7344-.35156 1.6719-.52734 2.8125-.52734.9531 0 1.8242.09374 2.6133.28124.7968.17969 1.4648.41797 2.0039.71485l.0351 3.46875h-2.3672l-.3632-1.66406c-.211-.15625-.461-.27344-.75-.35157-.2813-.07812-.6016-.11718-.961-.11718-.6015 0-1.0625.12109-1.3828.36328-.3203.24219-.4804.55469-.4804.9375 0 .21875.0546.42187.164.60937.1172.1875.3438.36328.6797.52735.3359.16409.8242.32029 1.4648.46879 1.5704.3593 2.7149.8398 3.4336 1.4414.7188.5937 1.0782 1.4297 1.0782 2.5078 0 1.1797-.4297 2.1328-1.2891 2.8593-.8516.7266-2.1289 1.0899-3.832 1.0899Zm20.602 0c-1.6567 0-3.0981-.3438-4.3247-1.0313-1.2265-.6953-2.1758-1.6757-2.8476-2.9414-.6641-1.2734-.9961-2.7773-.9961-4.51168V9.1875c0-1.65625.3203-3.12109.9609-4.39453.6484-1.28125 1.5703-2.28516 2.7656-3.01172 1.1953-.72656 2.6172-1.089844 4.2657-1.089844 1.1562 0 2.2382.164063 3.2462.492184 1.015.32813 1.922.82813 2.719 1.5v4.125h-2.543l-.352-2.58984c-.258-.1875-.539-.34766-.844-.48047-.304-.13281-.636-.23437-.996-.30469-.351-.07031-.734-.10547-1.1482-.10547-.9688 0-1.8008.23829-2.4961.71485-.6953.47656-1.2305 1.15234-1.6055 2.02734-.3672.86719-.5508 1.89844-.5508 3.09375v.59766c0 1.19528.1954 2.23048.586 3.10548.3906.875.9453 1.5547 1.664 2.039.7188.4766 1.5704.7149 2.5546.7149.492 0 .984-.0547 1.477-.1641.5-.1172.953-.2656 1.359-.4453l.352-2.4023h2.543v4.0781c-.664.4375-1.493.8086-2.485 1.1133-.992.2969-2.094.4453-3.304.4453Zm12.832 0c-1.336 0-2.387-.4219-3.153-1.2656-.758-.8516-1.137-2.1719-1.137-3.961V7.73438l-1.394-.35157v-2.0625h4.816V13.043c0 .9062.157 1.5586.469 1.957.32.3906.801.5859 1.442.5859.507 0 .957-.0976 1.347-.2929.391-.2032.711-.4883.961-.8555V7.73438l-1.512-.35157v-2.0625h4.934V15.5977l1.523.3515V18h-4.523l-.234-1.6055c-.399.5938-.899 1.0508-1.5 1.3711-.602.3203-1.282.4805-2.039.4805ZM122.684 18v-2.0508l1.64-.3515V7.73438l-1.816-.35157v-2.0625h5.004l.129 1.57031.023.28126c.313-.6875.699-1.20704 1.16-1.5586.461-.35156 1.012-.52734 1.653-.52734.203 0 .425.01953.668.05859.242.03125.457.07422.644.12891l-.363 3.15234-1.699-.09375c-.485-.02344-.879.05859-1.184.24609-.297.1875-.563.45704-.797.8086v6.21098l1.641.3515V18h-6.703Zm13.851 5.1211c-.297 0-.613-.0273-.949-.082-.328-.0469-.641-.1133-.938-.1993l.387-2.5078c.149.0313.313.0547.492.0703.18.0157.336.0235.469.0235.492 0 .918-.1289 1.277-.3867.36-.2579.622-.6289.786-1.1133l.281-.7852-4.242-10.53513-1.559-.22266v-2.0625h6.727v2.0625l-1.547.23438 1.992 5.58981.246.6914h.07l2.356-6.30465-1.512-.21094v-2.0625h6.27v2.0625l-1.43.19922-4.84 12.30467c-.234.586-.535 1.1211-.902 1.6055-.36.4922-.821.8867-1.383 1.1836-.555.2969-1.238.4453-2.051.4453Z"/>
</svg>
